<?xml version="1.0" encoding="utf-8"?>
<!-- Generator: Adobe Illustrator 19.2.1, SVG Export Plug-In . SVG Version: 6.00 Build 0)  -->
<svg version="1.1" id="layer" xmlns="http://www.w3.org/2000/svg" xmlns:xlink="http://www.w3.org/1999/xlink" x="0px" y="0px"
	 viewBox="0 0 652 652" style="enable-background:new 0 0 652 652;" xml:space="preserve">
<style type="text/css">
	.st0{fill:#E10213;}
	.st1{fill:#383231;}
	.st2{fill:#B4B4B5;}
</style>
<path class="st0" d="M61.1,315.3c-1.4,0.6-3.8,0.6-5.2,0l-25.8-10.2c-1.4-0.6-1.4-1.5,0-2.1l25.8-10.2c1.4-0.6,3.8-0.6,5.2,0
	l25.8,10.2c1.4,0.6,1.4,1.5,0,2.1L61.1,315.3z"/>
<path class="st1" d="M57,357.2c0,1.5-1.2,2.3-2.6,1.8l-25.8-10.2c-1.4-0.6-2.6-2.3-2.6-3.8v-35.8c0-1.5,1.2-2.3,2.6-1.8l25.8,10.2
	c1.4,0.6,2.6,2.3,2.6,3.8V357.2z"/>
<path class="st2" d="M59.9,357.2c0,1.5,1.2,2.3,2.6,1.8l25.8-10.2c1.4-0.6,2.6-2.3,2.6-3.8v-35.8c0-1.5-1.2-2.3-2.6-1.8l-25.8,10.2
	c-1.4,0.6-2.6,2.3-2.6,3.8V357.2z"/>
<path class="st1" d="M400.7,326.3c-0.7,0.9-2,1.3-3.9,1.3h-21.9v-11.1h21.9c1.7,0,3,0.4,3.8,1.2c0.8,0.8,1.2,2.1,1.2,3.9
	C401.8,323.9,401.4,325.4,400.7,326.3 M408.3,332.6c2.7-0.6,4.6-1.9,5.8-3.8c1.2-1.9,1.7-4.8,1.7-8.7c0-5.6-1.3-9.5-3.9-11.6
	c-2.6-2.1-7.5-3.2-14.6-3.2H361v45.2h13.8v-11.5h20.5c2.5,0,4.1,0.4,5,1c0.8,0.7,1.3,1.9,1.3,3.7v6.8h13.8v-9.2
	c0-2.3-0.6-4.2-1.8-5.6C412.5,334.2,410.7,333.2,408.3,332.6 M317.5,332l8.6-16l8.8,16H317.5z M317.5,305.2l-24.7,45.2h15.1l4.4-7.5
	h27.5l4.4,7.5h15.2l-24.2-45.2H317.5z M293.2,324.4h-30.6v9.2h16.2v0.1c0.1,0.6,0.1,1,0.1,1.2c0,1.8-0.8,3-2.2,3.7
	c-1.5,0.7-4.2,1.1-8.2,1.1h-8c-4.4,0-7.4-0.6-8.9-1.8c-1.5-1.2-2.2-3.5-2.2-6.7v-6.3c0-3.6,0.7-6,2-7.1c1.3-1.1,4.3-1.7,9.1-1.7h8
	c4.4,0,7.2,0.4,8.5,1.1c1.3,0.8,1.9,2.2,1.9,4.2v0.1h13.9c0-0.3,0-0.6,0.1-1v-1.6c0-2.8-0.3-5.1-1-6.9c-0.7-1.8-1.7-3.3-3.1-4.4
	c-1.4-1.1-3.2-1.8-5.6-2.2c-2.4-0.4-6-0.7-11-0.7h-15.4c-8.1,0-13.6,1.3-16.7,3.8c-3.1,2.5-4.6,7.1-4.6,13.5v12.4
	c0,3.2,0.4,5.8,1.2,7.9c0.8,2.1,2.2,3.9,4,5.3c1.6,1.2,3.5,2.1,5.7,2.6c2.2,0.5,5.7,0.8,10.4,0.8H272c7.8,0,13.3-0.9,16.5-2.7
	c3.1-1.8,4.7-4.8,4.7-9.1V324.4z M216.3,332c0,2.9-0.7,4.9-2,6c-1.3,1.1-3.9,1.7-7.8,1.7h-7.8c-4.7,0-7.7-0.5-9.1-1.6
	c-1.4-1-2.1-3.1-2.1-6.1v-26.8h-13.8v31.1c0,5.5,1.5,9.4,4.7,11.5c3.1,2.1,8.8,3.2,17.1,3.2H211c7.1,0,12-1.1,14.9-3.3
	c2.8-2.2,4.3-6,4.3-11.3v-31.1h-13.8V332z M155,322.5l-22.7-0.4c-2.1-0.2-3.5-0.5-4.3-1.1c-0.8-0.6-1.2-1.5-1.2-2.8s0.4-2.2,1.3-2.8
	c0.8-0.5,2.6-0.8,5.2-0.8h15.9c1.5,0,2.6,0.4,3.4,1.1c0.8,0.7,1.1,1.8,1.1,3.3v0.2h13.3c0.1-0.7,0.1-1.3,0.1-1.6c0-0.3,0-0.6,0-0.9
	c0-4.3-1.1-7.3-3.4-9.2c-2.3-1.9-6.1-2.8-11.3-2.8h-21c-4.8,0-8.3,0.3-10.4,0.8c-2.1,0.5-3.9,1.4-5.2,2.7c-1.1,1.1-1.9,2.5-2.4,4.2
	c-0.5,1.7-0.7,3.8-0.7,6.4c0,5,1,8.5,2.9,10.4c1.9,1.9,5.6,2.9,11,3.1l21.7,0.5c2.8,0.2,4.6,0.6,5.4,1.2c0.8,0.6,1.3,1.6,1.3,2.9
	c0,1.3-0.4,2.3-1.1,2.9c-0.7,0.6-1.9,0.9-3.6,0.9h-17.3c-2.7,0-4.4-0.3-5.3-0.9c-0.8-0.6-1.3-1.8-1.3-3.5v-0.8l-13.6,0
	c-0.1,0.9-0.1,1.7-0.1,2.3c0,0.6,0,1,0,1.3c0,4.6,1.3,7.8,3.8,9.5c2.6,1.7,7.6,2.6,15.2,2.6H150c3.9,0,7-0.2,9-0.5
	c2.1-0.3,3.7-0.9,4.9-1.7c1.8-1.2,3.2-2.7,3.9-4.4c0.8-1.7,1.2-4.1,1.2-7.3c0-5.3-1-9-3.2-11.2C163.8,323.8,160.1,322.6,155,322.5"
	/>
<path class="st2" d="M623,349.9c-1.4,0-2.5-1.2-2.5-2.6c0-1.4,1.1-2.6,2.5-2.6h0c1.4,0,2.5,1.2,2.5,2.6
	C625.5,348.8,624.4,350,623,349.9 M623,344.2L623,344.2c-1.7,0-3.1,1.4-3.1,3.1c0,1.8,1.4,3.1,3.1,3.1c1.7,0,3.1-1.4,3.1-3.1
	C626,345.6,624.7,344.2,623,344.2 M622.8,347.2h-0.4V346c0.1,0,0.2,0,0.4,0c0.6,0,0.8,0.3,0.8,0.6
	C623.6,347,623.2,347.2,622.8,347.2 M623.5,347.4L623.5,347.4c0.4-0.1,0.7-0.4,0.7-0.9c0-0.3-0.1-0.6-0.3-0.7
	c-0.2-0.2-0.6-0.3-1.1-0.3c-0.4,0-0.7,0-1,0.1v3.5h0.6v-1.5h0.4c0.4,0,0.7,0.2,0.7,0.6c0.1,0.5,0.2,0.8,0.2,0.9h0.6
	c-0.1-0.1-0.1-0.3-0.2-0.9C624.1,347.8,623.8,347.5,623.5,347.4 M581,333.5l-16.1-28.2h-20.4v45.2H558v-32.2l18.5,32.2h9l18.7-32.2
	v32.2h13.4v-45.2h-20.1L581,333.5z M479.1,332.9h-14v0.5c0,2.4-0.7,4-2.1,4.9c-1.4,0.9-4.2,1.3-8.6,1.3h-8c-4.4,0-7.4-0.6-8.9-1.8
	c-1.5-1.2-2.2-3.4-2.2-6.7v-6.2c0-3.6,0.7-6,2-7.2c1.4-1.1,4.4-1.7,9.1-1.7h11c2.5,0,4.4,0.4,5.5,1.2c1.2,0.8,1.7,2.1,1.7,3.9v0.5
	h13.9c0-0.3,0.1-0.6,0.1-1V319c0-2.8-0.3-5.1-1-7c-0.7-1.9-1.7-3.3-3.2-4.4c-1.4-1.1-3.2-1.8-5.5-2.3c-2.4-0.4-6-0.7-11-0.7h-15.4
	c-8.1,0-13.7,1.3-16.7,3.9c-3.1,2.6-4.6,7.1-4.6,13.6v12.2c0,3.2,0.4,5.9,1.2,8c0.8,2.1,2.1,3.9,4,5.3c1.6,1.2,3.5,2.1,5.7,2.6
	c2.2,0.5,5.7,0.8,10.4,0.8H458c4.7,0,8.3-0.2,10.8-0.7c2.5-0.5,4.4-1.2,5.9-2.3c1.5-1.1,2.7-2.6,3.4-4.5c0.7-1.9,1.1-4.3,1.1-7.2
	c0-0.7,0-1.6-0.1-3C479.1,333.1,479.1,333,479.1,332.9 M523.5,326.3c-0.7,0.9-2,1.3-3.9,1.3h-21.9v-11.1h21.9c1.7,0,3,0.4,3.8,1.2
	c0.8,0.8,1.2,2.1,1.2,3.9C524.7,323.9,524.3,325.4,523.5,326.3 M537,328.8c1.1-1.9,1.7-4.8,1.7-8.7c0-5.6-1.3-9.5-3.9-11.6
	c-2.6-2.1-7.5-3.2-14.6-3.2H484v45.2h13.8v-11.5h20.5c2.5,0,4.1,0.4,5,1c0.8,0.7,1.2,1.9,1.2,3.7v6.8h13.9v-9.2
	c0-2.3-0.6-4.2-1.8-5.6c-1.2-1.4-3-2.4-5.4-3C533.9,332,535.9,330.7,537,328.8"/>
</svg>
